STARTFONT 2.1
COMMENT
COMMENT Converted from OpenType font "DSEG7ClassicMini-Bold.ttf" by "otf2bdf 3.0".
COMMENT
FONT -FreeType-DSEG7 Classic Mini-Bold-R-Normal--36-260-100-100-P-198-ISO10646-1
SIZE 26 100 100
FONTBOUNDINGBOX 28 36 -2 0
STARTPROPERTIES 19
FOUNDRY "FreeType"
FAMILY_NAME "DSEG7 Classic Mini"
WEIGHT_NAME "Bold"
SLANT "R"
SETWIDTH_NAME "Normal"
ADD_STYLE_NAME ""
PIXEL_SIZE 36
POINT_SIZE 260
RESOLUTION_X 100
RESOLUTION_Y 100
SPACING "P"
AVERAGE_WIDTH 198
CHARSET_REGISTRY "ISO10646"
CHARSET_ENCODING "1"
FONT_ASCENT 36
FONT_DESCENT 0
COPYRIGHT "Created by Keshikan  with FontForge 2.0 (http://fontforge.sf.net)"
_OTF_FONTFILE "DSEG7ClassicMini-Bold.ttf"
_OTF_PSNAME "DSEG7ClassicMini-Bold"
ENDPROPERTIES
CHARS 69
STARTCHAR 0020
ENCODING 32
SWIDTH 193 0
DWIDTH 7 0
BBX 0 0 0 0
BITMAP
ENDCHAR
STARTCHAR 0021
ENCODING 33
SWIDTH 803 0
DWIDTH 29 0
BBX 0 0 0 0
BITMAP
ENDCHAR
STARTCHAR 002D
ENCODING 45
SWIDTH 803 0
DWIDTH 29 0
BBX 16 4 7 16
BITMAP
7FFE
FFFF
FFFF
7FFE
ENDCHAR
STARTCHAR 002E
ENCODING 46
SWIDTH 0 0
DWIDTH 0 0
BBX 4 4 -2 0
BITMAP
F0
F0
F0
60
ENDCHAR
STARTCHAR 0030
ENCODING 48
SWIDTH 803 0
DWIDTH 29 0
BBX 22 36 4 0
BITMAP
1FFFE0
1FFFE0
0FFFC0
87FF8C
E0001C
F0003C
F0007C
F0007C
F0007C
F0007C
F0007C
F0007C
F0007C
F0003C
E0001C
C0000C
800004
000000
000000
800004
C0000C
E0001C
F0003C
F0007C
F0007C
F0007C
F0007C
F0007C
F0007C
F0007C
F0003C
E0001C
C7FF8C
0FFFC0
1FFFE0
1FFFE0
ENDCHAR
STARTCHAR 0031
ENCODING 49
SWIDTH 803 0
DWIDTH 29 0
BBX 5 30 21 3
BITMAP
18
38
78
F8
F8
F8
F8
F8
F8
F8
78
38
18
08
00
00
08
18
38
78
F8
F8
F8
F8
F8
F8
F8
78
38
18
ENDCHAR
STARTCHAR 0032
ENCODING 50
SWIDTH 803 0
DWIDTH 29 0
BBX 22 36 4 0
BITMAP
1FFFE0
1FFFE0
0FFFC0
07FF8C
00001C
00003C
00007C
00007C
00007C
00007C
00007C
00007C
00007C
00003C
00001C
00000C
0FFFC4
1FFFE0
1FFFE0
8FFFC0
C00000
E00000
F00000
F00000
F00000
F00000
F00000
F00000
F00000
F00000
F00000
E00000
C7FF80
0FFFC0
1FFFE0
1FFFE0
ENDCHAR
STARTCHAR 0033
ENCODING 51
SWIDTH 803 0
DWIDTH 29 0
BBX 19 36 7 0
BITMAP
FFFF00
FFFF00
7FFE00
3FFC60
0000E0
0001E0
0003E0
0003E0
0003E0
0003E0
0003E0
0003E0
0003E0
0001E0
0000E0
000060
7FFE20
FFFF00
FFFF00
7FFE20
000060
0000E0
0001E0
0003E0
0003E0
0003E0
0003E0
0003E0
0003E0
0003E0
0001E0
0000E0
3FFC60
7FFE00
FFFF00
FFFF00
ENDCHAR
STARTCHAR 0034
ENCODING 52
SWIDTH 803 0
DWIDTH 29 0
BBX 22 30 4 3
BITMAP
80000C
E0001C
F0003C
F0007C
F0007C
F0007C
F0007C
F0007C
F0007C
F0007C
F0003C
E0001C
C0000C
8FFFC4
1FFFE0
1FFFE0
0FFFC4
00000C
00001C
00003C
00007C
00007C
00007C
00007C
00007C
00007C
00007C
00003C
00001C
00000C
ENDCHAR
STARTCHAR 0035
ENCODING 53
SWIDTH 803 0
DWIDTH 29 0
BBX 22 36 4 0
BITMAP
1FFFE0
1FFFE0
0FFFC0
87FF80
E00000
F00000
F00000
F00000
F00000
F00000
F00000
F00000
F00000
F00000
E00000
C00000
8FFFC0
1FFFE0
1FFFE0
0FFFC4
00000C
00001C
00003C
00007C
00007C
00007C
00007C
00007C
00007C
00007C
00003C
00001C
07FF8C
0FFFC0
1FFFE0
1FFFE0
ENDCHAR
STARTCHAR 0036
ENCODING 54
SWIDTH 803 0
DWIDTH 29 0
BBX 22 36 4 0
BITMAP
1FFFE0
1FFFE0
0FFFC0
87FF80
E00000
F00000
F00000
F00000
F00000
F00000
F00000
F00000
F00000
F00000
E00000
C00000
8FFFC0
1FFFE0
1FFFE0
8FFFC4
C0000C
E0001C
F0003C
F0007C
F0007C
F0007C
F0007C
F0007C
F0007C
F0007C
F0003C
E0001C
C7FF8C
0FFFC0
1FFFE0
1FFFE0
ENDCHAR
STARTCHAR 0037
ENCODING 55
SWIDTH 803 0
DWIDTH 29 0
BBX 22 33 4 3
BITMAP
1FFFE0
1FFFE0
0FFFC0
87FF8C
E0001C
F0003C
F0007C
F0007C
F0007C
F0007C
F0007C
F0007C
F0007C
F0003C
E0001C
C0000C
800004
000000
000000
000004
00000C
00001C
00003C
00007C
00007C
00007C
00007C
00007C
00007C
00007C
00003C
00001C
00000C
ENDCHAR
STARTCHAR 0038
ENCODING 56
SWIDTH 803 0
DWIDTH 29 0
BBX 22 36 4 0
BITMAP
1FFFE0
1FFFE0
0FFFC0
87FF8C
E0001C
F0003C
F0007C
F0007C
F0007C
F0007C
F0007C
F0007C
F0007C
F0003C
E0001C
C0000C
8FFFC4
1FFFE0
1FFFE0
8FFFC4
C0000C
E0001C
F0003C
F0007C
F0007C
F0007C
F0007C
F0007C
F0007C
F0007C
F0003C
E0001C
C7FF8C
0FFFC0
1FFFE0
1FFFE0
ENDCHAR
STARTCHAR 0039
ENCODING 57
SWIDTH 803 0
DWIDTH 29 0
BBX 22 36 4 0
BITMAP
1FFFE0
1FFFE0
0FFFC0
87FF8C
E0001C
F0003C
F0007C
F0007C
F0007C
F0007C
F0007C
F0007C
F0007C
F0003C
E0001C
C0000C
8FFFC4
1FFFE0
1FFFE0
0FFFC4
00000C
00001C
00003C
00007C
00007C
00007C
00007C
00007C
00007C
00007C
00003C
00001C
07FF8C
0FFFC0
1FFFE0
1FFFE0
ENDCHAR
STARTCHAR 003A
ENCODING 58
SWIDTH 193 0
DWIDTH 7 0
BBX 5 19 1 8
BITMAP
70
F8
F8
70
00
00
00
00
00
00
00
00
00
00
00
70
F8
F8
70
ENDCHAR
STARTCHAR 0041
ENCODING 65
SWIDTH 803 0
DWIDTH 29 0
BBX 22 33 4 3
BITMAP
1FFFE0
1FFFE0
0FFFC0
87FF8C
E0001C
F0003C
F0007C
F0007C
F0007C
F0007C
F0007C
F0007C
F0007C
F0003C
E0001C
C0000C
8FFFC4
1FFFE0
1FFFE0
8FFFC4
C0000C
E0001C
F0003C
F0007C
F0007C
F0007C
F0007C
F0007C
F0007C
F0007C
F0003C
E0001C
C0000C
ENDCHAR
STARTCHAR 0042
ENCODING 66
SWIDTH 803 0
DWIDTH 29 0
BBX 22 33 4 0
BITMAP
800000
E00000
F00000
F00000
F00000
F00000
F00000
F00000
F00000
F00000
F00000
E00000
C00000
8FFFC0
1FFFE0
1FFFE0
8FFFC4
C0000C
E0001C
F0003C
F0007C
F0007C
F0007C
F0007C
F0007C
F0007C
F0007C
F0003C
E0001C
C7FF8C
0FFFC0
1FFFE0
1FFFE0
ENDCHAR
STARTCHAR 0043
ENCODING 67
SWIDTH 803 0
DWIDTH 29 0
BBX 19 20 4 0
BITMAP
0FFFC0
1FFFE0
1FFFE0
8FFFC0
C00000
E00000
F00000
F00000
F00000
F00000
F00000
F00000
F00000
F00000
F00000
E00000
C7FF80
0FFFC0
1FFFE0
1FFFE0
ENDCHAR
STARTCHAR 0044
ENCODING 68
SWIDTH 803 0
DWIDTH 29 0
BBX 22 33 4 0
BITMAP
00000C
00001C
00003C
00007C
00007C
00007C
00007C
00007C
00007C
00007C
00003C
00001C
00000C
0FFFC4
1FFFE0
1FFFE0
8FFFC4
C0000C
E0001C
F0003C
F0007C
F0007C
F0007C
F0007C
F0007C
F0007C
F0007C
F0003C
E0001C
C7FF8C
0FFFC0
1FFFE0
1FFFE0
ENDCHAR
STARTCHAR 0045
ENCODING 69
SWIDTH 803 0
DWIDTH 29 0
BBX 19 36 4 0
BITMAP
1FFFE0
1FFFE0
0FFFC0
87FF80
E00000
F00000
F00000
F00000
F00000
F00000
F00000
F00000
F00000
F00000
E00000
C00000
8FFFC0
1FFFE0
1FFFE0
8FFFC0
C00000
E00000
F00000
F00000
F00000
F00000
F00000
F00000
F00000
F00000
F00000
E00000
C7FF80
0FFFC0
1FFFE0
1FFFE0
ENDCHAR
STARTCHAR 0046
ENCODING 70
SWIDTH 803 0
DWIDTH 29 0
BBX 19 33 4 3
BITMAP
1FFFE0
1FFFE0
0FFFC0
87FF80
E00000
F00000
F00000
F00000
F00000
F00000
F00000
F00000
F00000
F00000
E00000
C00000
8FFFC0
1FFFE0
1FFFE0
8FFFC0
C00000
E00000
F00000
F00000
F00000
F00000
F00000
F00000
F00000
F00000
F00000
E00000
C00000
ENDCHAR
STARTCHAR 0047
ENCODING 71
SWIDTH 803 0
DWIDTH 29 0
BBX 22 36 4 0
BITMAP
1FFFE0
1FFFE0
0FFFC0
87FF80
E00000
F00000
F00000
F00000
F00000
F00000
F00000
F00000
F00000
F00000
E00000
C00000
800000
000000
000000
800004
C0000C
E0001C
F0003C
F0007C
F0007C
F0007C
F0007C
F0007C
F0007C
F0007C
F0003C
E0001C
C7FF8C
0FFFC0
1FFFE0
1FFFE0
ENDCHAR
STARTCHAR 0048
ENCODING 72
SWIDTH 803 0
DWIDTH 29 0
BBX 22 30 4 3
BITMAP
800000
E00000
F00000
F00000
F00000
F00000
F00000
F00000
F00000
F00000
F00000
E00000
C00000
8FFFC0
1FFFE0
1FFFE0
8FFFC4
C0000C
E0001C
F0003C
F0007C
F0007C
F0007C
F0007C
F0007C
F0007C
F0007C
F0003C
E0001C
C0000C
ENDCHAR
STARTCHAR 0049
ENCODING 73
SWIDTH 803 0
DWIDTH 29 0
BBX 5 14 21 3
BITMAP
08
18
38
78
F8
F8
F8
F8
F8
F8
F8
78
38
18
ENDCHAR
STARTCHAR 004A
ENCODING 74
SWIDTH 803 0
DWIDTH 29 0
BBX 22 33 4 0
BITMAP
00000C
00001C
00003C
00007C
00007C
00007C
00007C
00007C
00007C
00007C
00003C
00001C
00000C
000004
000000
000000
800004
C0000C
E0001C
F0003C
F0007C
F0007C
F0007C
F0007C
F0007C
F0007C
F0007C
F0003C
E0001C
C7FF8C
0FFFC0
1FFFE0
1FFFE0
ENDCHAR
STARTCHAR 004B
ENCODING 75
SWIDTH 803 0
DWIDTH 29 0
BBX 22 33 4 3
BITMAP
1FFFE0
1FFFE0
0FFFC0
87FF80
E00000
F00000
F00000
F00000
F00000
F00000
F00000
F00000
F00000
F00000
E00000
C00000
8FFFC0
1FFFE0
1FFFE0
8FFFC4
C0000C
E0001C
F0003C
F0007C
F0007C
F0007C
F0007C
F0007C
F0007C
F0007C
F0003C
E0001C
C0000C
ENDCHAR
STARTCHAR 004C
ENCODING 76
SWIDTH 803 0
DWIDTH 29 0
BBX 19 33 4 0
BITMAP
800000
E00000
F00000
F00000
F00000
F00000
F00000
F00000
F00000
F00000
F00000
E00000
C00000
800000
000000
000000
800000
C00000
E00000
F00000
F00000
F00000
F00000
F00000
F00000
F00000
F00000
F00000
E00000
C7FF80
0FFFC0
1FFFE0
1FFFE0
ENDCHAR
STARTCHAR 004D
ENCODING 77
SWIDTH 803 0
DWIDTH 29 0
BBX 22 33 4 3
BITMAP
1FFFE0
1FFFE0
0FFFC0
87FF8C
E0001C
F0003C
F0007C
F0007C
F0007C
F0007C
F0007C
F0007C
F0007C
F0003C
E0001C
C0000C
800004
000000
000000
800004
C0000C
E0001C
F0003C
F0007C
F0007C
F0007C
F0007C
F0007C
F0007C
F0007C
F0003C
E0001C
C0000C
ENDCHAR
STARTCHAR 004E
ENCODING 78
SWIDTH 803 0
DWIDTH 29 0
BBX 22 17 4 3
BITMAP
0FFFC0
1FFFE0
1FFFE0
8FFFC4
C0000C
E0001C
F0003C
F0007C
F0007C
F0007C
F0007C
F0007C
F0007C
F0007C
F0003C
E0001C
C0000C
ENDCHAR
STARTCHAR 004F
ENCODING 79
SWIDTH 803 0
DWIDTH 29 0
BBX 22 20 4 0
BITMAP
0FFFC0
1FFFE0
1FFFE0
8FFFC4
C0000C
E0001C
F0003C
F0007C
F0007C
F0007C
F0007C
F0007C
F0007C
F0007C
F0003C
E0001C
C7FF8C
0FFFC0
1FFFE0
1FFFE0
ENDCHAR
STARTCHAR 0050
ENCODING 80
SWIDTH 803 0
DWIDTH 29 0
BBX 22 33 4 3
BITMAP
1FFFE0
1FFFE0
0FFFC0
87FF8C
E0001C
F0003C
F0007C
F0007C
F0007C
F0007C
F0007C
F0007C
F0007C
F0003C
E0001C
C0000C
8FFFC4
1FFFE0
1FFFE0
8FFFC0
C00000
E00000
F00000
F00000
F00000
F00000
F00000
F00000
F00000
F00000
F00000
E00000
C00000
ENDCHAR
STARTCHAR 0051
ENCODING 81
SWIDTH 803 0
DWIDTH 29 0
BBX 22 33 4 3
BITMAP
1FFFE0
1FFFE0
0FFFC0
87FF8C
E0001C
F0003C
F0007C
F0007C
F0007C
F0007C
F0007C
F0007C
F0007C
F0003C
E0001C
C0000C
8FFFC4
1FFFE0
1FFFE0
0FFFC4
00000C
00001C
00003C
00007C
00007C
00007C
00007C
00007C
00007C
00007C
00003C
00001C
00000C
ENDCHAR
STARTCHAR 0052
ENCODING 82
SWIDTH 803 0
DWIDTH 29 0
BBX 19 17 4 3
BITMAP
0FFFC0
1FFFE0
1FFFE0
8FFFC0
C00000
E00000
F00000
F00000
F00000
F00000
F00000
F00000
F00000
F00000
F00000
E00000
C00000
ENDCHAR
STARTCHAR 0053
ENCODING 83
SWIDTH 803 0
DWIDTH 29 0
BBX 22 33 4 0
BITMAP
800000
E00000
F00000
F00000
F00000
F00000
F00000
F00000
F00000
F00000
F00000
E00000
C00000
8FFFC0
1FFFE0
1FFFE0
0FFFC4
00000C
00001C
00003C
00007C
00007C
00007C
00007C
00007C
00007C
00007C
00003C
00001C
07FF8C
0FFFC0
1FFFE0
1FFFE0
ENDCHAR
STARTCHAR 0054
ENCODING 84
SWIDTH 803 0
DWIDTH 29 0
BBX 19 33 4 0
BITMAP
800000
E00000
F00000
F00000
F00000
F00000
F00000
F00000
F00000
F00000
F00000
E00000
C00000
8FFFC0
1FFFE0
1FFFE0
8FFFC0
C00000
E00000
F00000
F00000
F00000
F00000
F00000
F00000
F00000
F00000
F00000
E00000
C7FF80
0FFFC0
1FFFE0
1FFFE0
ENDCHAR
STARTCHAR 0055
ENCODING 85
SWIDTH 803 0
DWIDTH 29 0
BBX 22 17 4 0
BITMAP
800004
C0000C
E0001C
F0003C
F0007C
F0007C
F0007C
F0007C
F0007C
F0007C
F0007C
F0003C
E0001C
C7FF8C
0FFFC0
1FFFE0
1FFFE0
ENDCHAR
STARTCHAR 0056
ENCODING 86
SWIDTH 803 0
DWIDTH 29 0
BBX 22 33 4 0
BITMAP
80000C
E0001C
F0003C
F0007C
F0007C
F0007C
F0007C
F0007C
F0007C
F0007C
F0003C
E0001C
C0000C
800004
000000
000000
800004
C0000C
E0001C
F0003C
F0007C
F0007C
F0007C
F0007C
F0007C
F0007C
F0007C
F0003C
E0001C
C7FF8C
0FFFC0
1FFFE0
1FFFE0
ENDCHAR
STARTCHAR 0057
ENCODING 87
SWIDTH 803 0
DWIDTH 29 0
BBX 22 33 4 0
BITMAP
80000C
E0001C
F0003C
F0007C
F0007C
F0007C
F0007C
F0007C
F0007C
F0007C
F0003C
E0001C
C0000C
8FFFC4
1FFFE0
1FFFE0
8FFFC4
C0000C
E0001C
F0003C
F0007C
F0007C
F0007C
F0007C
F0007C
F0007C
F0007C
F0003C
E0001C
C7FF8C
0FFFC0
1FFFE0
1FFFE0
ENDCHAR
STARTCHAR 0058
ENCODING 88
SWIDTH 803 0
DWIDTH 29 0
BBX 22 30 4 3
BITMAP
80000C
E0001C
F0003C
F0007C
F0007C
F0007C
F0007C
F0007C
F0007C
F0007C
F0003C
E0001C
C0000C
8FFFC4
1FFFE0
1FFFE0
8FFFC4
C0000C
E0001C
F0003C
F0007C
F0007C
F0007C
F0007C
F0007C
F0007C
F0007C
F0003C
E0001C
C0000C
ENDCHAR
STARTCHAR 0059
ENCODING 89
SWIDTH 803 0
DWIDTH 29 0
BBX 22 33 4 0
BITMAP
80000C
E0001C
F0003C
F0007C
F0007C
F0007C
F0007C
F0007C
F0007C
F0007C
F0003C
E0001C
C0000C
8FFFC4
1FFFE0
1FFFE0
0FFFC4
00000C
00001C
00003C
00007C
00007C
00007C
00007C
00007C
00007C
00007C
00003C
00001C
07FF8C
0FFFC0
1FFFE0
1FFFE0
ENDCHAR
STARTCHAR 005A
ENCODING 90
SWIDTH 803 0
DWIDTH 29 0
BBX 22 36 4 0
BITMAP
1FFFE0
1FFFE0
0FFFC0
07FF8C
00001C
00003C
00007C
00007C
00007C
00007C
00007C
00007C
00007C
00003C
00001C
00000C
000004
000000
000000
800000
C00000
E00000
F00000
F00000
F00000
F00000
F00000
F00000
F00000
F00000
F00000
E00000
C7FF80
0FFFC0
1FFFE0
1FFFE0
ENDCHAR
STARTCHAR 005F
ENCODING 95
SWIDTH 803 0
DWIDTH 29 0
BBX 16 4 7 0
BITMAP
3FFC
7FFE
FFFF
FFFF
ENDCHAR
STARTCHAR 0061
ENCODING 97
SWIDTH 803 0
DWIDTH 29 0
BBX 22 33 4 3
BITMAP
1FFFE0
1FFFE0
0FFFC0
87FF8C
E0001C
F0003C
F0007C
F0007C
F0007C
F0007C
F0007C
F0007C
F0007C
F0003C
E0001C
C0000C
8FFFC4
1FFFE0
1FFFE0
8FFFC4
C0000C
E0001C
F0003C
F0007C
F0007C
F0007C
F0007C
F0007C
F0007C
F0007C
F0003C
E0001C
C0000C
ENDCHAR
STARTCHAR 0062
ENCODING 98
SWIDTH 803 0
DWIDTH 29 0
BBX 22 33 4 0
BITMAP
800000
E00000
F00000
F00000
F00000
F00000
F00000
F00000
F00000
F00000
F00000
E00000
C00000
8FFFC0
1FFFE0
1FFFE0
8FFFC4
C0000C
E0001C
F0003C
F0007C
F0007C
F0007C
F0007C
F0007C
F0007C
F0007C
F0003C
E0001C
C7FF8C
0FFFC0
1FFFE0
1FFFE0
ENDCHAR
STARTCHAR 0063
ENCODING 99
SWIDTH 803 0
DWIDTH 29 0
BBX 19 20 4 0
BITMAP
0FFFC0
1FFFE0
1FFFE0
8FFFC0
C00000
E00000
F00000
F00000
F00000
F00000
F00000
F00000
F00000
F00000
F00000
E00000
C7FF80
0FFFC0
1FFFE0
1FFFE0
ENDCHAR
STARTCHAR 0064
ENCODING 100
SWIDTH 803 0
DWIDTH 29 0
BBX 22 33 4 0
BITMAP
00000C
00001C
00003C
00007C
00007C
00007C
00007C
00007C
00007C
00007C
00003C
00001C
00000C
0FFFC4
1FFFE0
1FFFE0
8FFFC4
C0000C
E0001C
F0003C
F0007C
F0007C
F0007C
F0007C
F0007C
F0007C
F0007C
F0003C
E0001C
C7FF8C
0FFFC0
1FFFE0
1FFFE0
ENDCHAR
STARTCHAR 0065
ENCODING 101
SWIDTH 803 0
DWIDTH 29 0
BBX 19 36 4 0
BITMAP
1FFFE0
1FFFE0
0FFFC0
87FF80
E00000
F00000
F00000
F00000
F00000
F00000
F00000
F00000
F00000
F00000
E00000
C00000
8FFFC0
1FFFE0
1FFFE0
8FFFC0
C00000
E00000
F00000
F00000
F00000
F00000
F00000
F00000
F00000
F00000
F00000
E00000
C7FF80
0FFFC0
1FFFE0
1FFFE0
ENDCHAR
STARTCHAR 0066
ENCODING 102
SWIDTH 803 0
DWIDTH 29 0
BBX 19 33 4 3
BITMAP
1FFFE0
1FFFE0
0FFFC0
87FF80
E00000
F00000
F00000
F00000
F00000
F00000
F00000
F00000
F00000
F00000
E00000
C00000
8FFFC0
1FFFE0
1FFFE0
8FFFC0
C00000
E00000
F00000
F00000
F00000
F00000
F00000
F00000
F00000
F00000
F00000
E00000
C00000
ENDCHAR
STARTCHAR 0067
ENCODING 103
SWIDTH 803 0
DWIDTH 29 0
BBX 22 36 4 0
BITMAP
1FFFE0
1FFFE0
0FFFC0
87FF80
E00000
F00000
F00000
F00000
F00000
F00000
F00000
F00000
F00000
F00000
E00000
C00000
800000
000000
000000
800004
C0000C
E0001C
F0003C
F0007C
F0007C
F0007C
F0007C
F0007C
F0007C
F0007C
F0003C
E0001C
C7FF8C
0FFFC0
1FFFE0
1FFFE0
ENDCHAR
STARTCHAR 0068
ENCODING 104
SWIDTH 803 0
DWIDTH 29 0
BBX 22 30 4 3
BITMAP
800000
E00000
F00000
F00000
F00000
F00000
F00000
F00000
F00000
F00000
F00000
E00000
C00000
8FFFC0
1FFFE0
1FFFE0
8FFFC4
C0000C
E0001C
F0003C
F0007C
F0007C
F0007C
F0007C
F0007C
F0007C
F0007C
F0003C
E0001C
C0000C
ENDCHAR
STARTCHAR 0069
ENCODING 105
SWIDTH 803 0
DWIDTH 29 0
BBX 5 14 21 3
BITMAP
08
18
38
78
F8
F8
F8
F8
F8
F8
F8
78
38
18
ENDCHAR
STARTCHAR 006A
ENCODING 106
SWIDTH 803 0
DWIDTH 29 0
BBX 22 33 4 0
BITMAP
00000C
00001C
00003C
00007C
00007C
00007C
00007C
00007C
00007C
00007C
00003C
00001C
00000C
000004
000000
000000
800004
C0000C
E0001C
F0003C
F0007C
F0007C
F0007C
F0007C
F0007C
F0007C
F0007C
F0003C
E0001C
C7FF8C
0FFFC0
1FFFE0
1FFFE0
ENDCHAR
STARTCHAR 006B
ENCODING 107
SWIDTH 803 0
DWIDTH 29 0
BBX 22 33 4 3
BITMAP
1FFFE0
1FFFE0
0FFFC0
87FF80
E00000
F00000
F00000
F00000
F00000
F00000
F00000
F00000
F00000
F00000
E00000
C00000
8FFFC0
1FFFE0
1FFFE0
8FFFC4
C0000C
E0001C
F0003C
F0007C
F0007C
F0007C
F0007C
F0007C
F0007C
F0007C
F0003C
E0001C
C0000C
ENDCHAR
STARTCHAR 006C
ENCODING 108
SWIDTH 803 0
DWIDTH 29 0
BBX 19 33 4 0
BITMAP
800000
E00000
F00000
F00000
F00000
F00000
F00000
F00000
F00000
F00000
F00000
E00000
C00000
800000
000000
000000
800000
C00000
E00000
F00000
F00000
F00000
F00000
F00000
F00000
F00000
F00000
F00000
E00000
C7FF80
0FFFC0
1FFFE0
1FFFE0
ENDCHAR
STARTCHAR 006D
ENCODING 109
SWIDTH 803 0
DWIDTH 29 0
BBX 22 33 4 3
BITMAP
1FFFE0
1FFFE0
0FFFC0
87FF8C
E0001C
F0003C
F0007C
F0007C
F0007C
F0007C
F0007C
F0007C
F0007C
F0003C
E0001C
C0000C
800004
000000
000000
800004
C0000C
E0001C
F0003C
F0007C
F0007C
F0007C
F0007C
F0007C
F0007C
F0007C
F0003C
E0001C
C0000C
ENDCHAR
STARTCHAR 006E
ENCODING 110
SWIDTH 803 0
DWIDTH 29 0
BBX 22 17 4 3
BITMAP
0FFFC0
1FFFE0
1FFFE0
8FFFC4
C0000C
E0001C
F0003C
F0007C
F0007C
F0007C
F0007C
F0007C
F0007C
F0007C
F0003C
E0001C
C0000C
ENDCHAR
STARTCHAR 006F
ENCODING 111
SWIDTH 803 0
DWIDTH 29 0
BBX 22 20 4 0
BITMAP
0FFFC0
1FFFE0
1FFFE0
8FFFC4
C0000C
E0001C
F0003C
F0007C
F0007C
F0007C
F0007C
F0007C
F0007C
F0007C
F0003C
E0001C
C7FF8C
0FFFC0
1FFFE0
1FFFE0
ENDCHAR
STARTCHAR 0070
ENCODING 112
SWIDTH 803 0
DWIDTH 29 0
BBX 22 33 4 3
BITMAP
1FFFE0
1FFFE0
0FFFC0
87FF8C
E0001C
F0003C
F0007C
F0007C
F0007C
F0007C
F0007C
F0007C
F0007C
F0003C
E0001C
C0000C
8FFFC4
1FFFE0
1FFFE0
8FFFC0
C00000
E00000
F00000
F00000
F00000
F00000
F00000
F00000
F00000
F00000
F00000
E00000
C00000
ENDCHAR
STARTCHAR 0071
ENCODING 113
SWIDTH 803 0
DWIDTH 29 0
BBX 22 33 4 3
BITMAP
1FFFE0
1FFFE0
0FFFC0
87FF8C
E0001C
F0003C
F0007C
F0007C
F0007C
F0007C
F0007C
F0007C
F0007C
F0003C
E0001C
C0000C
8FFFC4
1FFFE0
1FFFE0
0FFFC4
00000C
00001C
00003C
00007C
00007C
00007C
00007C
00007C
00007C
00007C
00003C
00001C
00000C
ENDCHAR
STARTCHAR 0072
ENCODING 114
SWIDTH 803 0
DWIDTH 29 0
BBX 19 17 4 3
BITMAP
0FFFC0
1FFFE0
1FFFE0
8FFFC0
C00000
E00000
F00000
F00000
F00000
F00000
F00000
F00000
F00000
F00000
F00000
E00000
C00000
ENDCHAR
STARTCHAR 0073
ENCODING 115
SWIDTH 803 0
DWIDTH 29 0
BBX 22 33 4 0
BITMAP
800000
E00000
F00000
F00000
F00000
F00000
F00000
F00000
F00000
F00000
F00000
E00000
C00000
8FFFC0
1FFFE0
1FFFE0
0FFFC4
00000C
00001C
00003C
00007C
00007C
00007C
00007C
00007C
00007C
00007C
00003C
00001C
07FF8C
0FFFC0
1FFFE0
1FFFE0
ENDCHAR
STARTCHAR 0074
ENCODING 116
SWIDTH 803 0
DWIDTH 29 0
BBX 19 33 4 0
BITMAP
800000
E00000
F00000
F00000
F00000
F00000
F00000
F00000
F00000
F00000
F00000
E00000
C00000
8FFFC0
1FFFE0
1FFFE0
8FFFC0
C00000
E00000
F00000
F00000
F00000
F00000
F00000
F00000
F00000
F00000
F00000
E00000
C7FF80
0FFFC0
1FFFE0
1FFFE0
ENDCHAR
STARTCHAR 0075
ENCODING 117
SWIDTH 803 0
DWIDTH 29 0
BBX 22 17 4 0
BITMAP
800004
C0000C
E0001C
F0003C
F0007C
F0007C
F0007C
F0007C
F0007C
F0007C
F0007C
F0003C
E0001C
C7FF8C
0FFFC0
1FFFE0
1FFFE0
ENDCHAR
STARTCHAR 0076
ENCODING 118
SWIDTH 803 0
DWIDTH 29 0
BBX 22 33 4 0
BITMAP
80000C
E0001C
F0003C
F0007C
F0007C
F0007C
F0007C
F0007C
F0007C
F0007C
F0003C
E0001C
C0000C
800004
000000
000000
800004
C0000C
E0001C
F0003C
F0007C
F0007C
F0007C
F0007C
F0007C
F0007C
F0007C
F0003C
E0001C
C7FF8C
0FFFC0
1FFFE0
1FFFE0
ENDCHAR
STARTCHAR 0077
ENCODING 119
SWIDTH 803 0
DWIDTH 29 0
BBX 22 33 4 0
BITMAP
80000C
E0001C
F0003C
F0007C
F0007C
F0007C
F0007C
F0007C
F0007C
F0007C
F0003C
E0001C
C0000C
8FFFC4
1FFFE0
1FFFE0
8FFFC4
C0000C
E0001C
F0003C
F0007C
F0007C
F0007C
F0007C
F0007C
F0007C
F0007C
F0003C
E0001C
C7FF8C
0FFFC0
1FFFE0
1FFFE0
ENDCHAR
STARTCHAR 0078
ENCODING 120
SWIDTH 803 0
DWIDTH 29 0
BBX 22 30 4 3
BITMAP
80000C
E0001C
F0003C
F0007C
F0007C
F0007C
F0007C
F0007C
F0007C
F0007C
F0003C
E0001C
C0000C
8FFFC4
1FFFE0
1FFFE0
8FFFC4
C0000C
E0001C
F0003C
F0007C
F0007C
F0007C
F0007C
F0007C
F0007C
F0007C
F0003C
E0001C
C0000C
ENDCHAR
STARTCHAR 0079
ENCODING 121
SWIDTH 803 0
DWIDTH 29 0
BBX 22 33 4 0
BITMAP
80000C
E0001C
F0003C
F0007C
F0007C
F0007C
F0007C
F0007C
F0007C
F0007C
F0003C
E0001C
C0000C
8FFFC4
1FFFE0
1FFFE0
0FFFC4
00000C
00001C
00003C
00007C
00007C
00007C
00007C
00007C
00007C
00007C
00003C
00001C
07FF8C
0FFFC0
1FFFE0
1FFFE0
ENDCHAR
STARTCHAR 007A
ENCODING 122
SWIDTH 803 0
DWIDTH 29 0
BBX 22 36 4 0
BITMAP
1FFFE0
1FFFE0
0FFFC0
07FF8C
00001C
00003C
00007C
00007C
00007C
00007C
00007C
00007C
00007C
00003C
00001C
00000C
000004
000000
000000
800000
C00000
E00000
F00000
F00000
F00000
F00000
F00000
F00000
F00000
F00000
F00000
E00000
C7FF80
0FFFC0
1FFFE0
1FFFE0
ENDCHAR
STARTCHAR 00B0
ENCODING 176
SWIDTH 803 0
DWIDTH 29 0
BBX 22 20 4 16
BITMAP
1FFFE0
1FFFE0
0FFFC0
87FF8C
E0001C
F0003C
F0007C
F0007C
F0007C
F0007C
F0007C
F0007C
F0007C
F0003C
E0001C
C0000C
8FFFC4
1FFFE0
1FFFE0
0FFFC0
ENDCHAR
ENDFONT
